<svg width="32" height="32" viewBox="0 0 32 32" fill="none" xmlns="http://www.w3.org/2000/svg">
<g clip-path="url(#clip0_774_277)">
<path d="M20.2781 11.1293C20.2781 12.2879 19.7879 13.3129 18.9857 14.1151C18.0944 15.0064 16.8021 15.2292 16.8021 15.9868C16.8021 17.0117 18.451 16.6998 20.033 18.2818C21.0802 19.3291 21.7264 20.7106 21.7264 22.3149C21.7264 25.4789 19.1863 27.9968 15.9999 27.9968C12.8136 27.9968 10.2734 25.4789 10.2734 22.3171C10.2734 20.7106 10.9196 19.3291 11.9669 18.2818C13.5489 16.6998 15.1978 17.0117 15.1978 15.9868C15.1978 15.2292 13.9054 15.0064 13.0141 14.1151C12.212 13.3129 11.7218 12.2879 11.7218 11.0847C11.7218 8.76738 13.6157 6.89569 15.9331 6.89569C16.3787 6.89569 16.7798 6.96254 17.114 6.96254C17.7156 6.96254 18.0276 6.69515 18.0276 6.27179C18.0276 6.02669 17.9162 5.71474 17.9162 5.38051C17.9162 4.62292 18.5624 3.99902 19.3422 3.99902C20.1221 3.99902 20.746 4.6452 20.746 5.42507C20.746 6.24951 20.0998 6.62831 19.6096 6.80656C19.2085 6.94025 18.8966 7.11851 18.8966 7.51959C18.8966 8.27718 20.2781 9.01249 20.2781 11.1293ZM19.8324 22.3171C19.8324 20.1112 18.2058 18.3286 15.9999 18.3286C13.794 18.3286 12.1674 20.1112 12.1674 22.3171C12.1674 24.5007 13.794 26.3056 15.9999 26.3056C18.2058 26.3056 19.8324 24.4985 19.8324 22.3171ZM18.5178 11.0847C18.5178 9.68095 17.3814 8.52228 15.9999 8.52228C14.6184 8.52228 13.4821 9.68095 13.4821 11.0847C13.4821 12.4885 14.6184 13.6472 15.9999 13.6472C17.3814 13.6472 18.5178 12.4885 18.5178 11.0847Z" fill="#24A47F"/>
</g>
<defs>
<clipPath id="clip0_774_277">
<rect width="11.453" height="24" fill="white" transform="translate(10.2734 3.99902)"/>
</clipPath>
</defs>
</svg>
